<svg width="50" height="50" viewBox="0 0 50 50" fill="none" xmlns="http://www.w3.org/2000/svg">
<path d="M10.1074 36.292L31.4131 36.29C31.4437 36.29 31.4671 36.3031 31.4834 36.3291L33.8682 40.2871C33.8703 40.2906 33.8714 40.2945 33.8715 40.2985C33.8715 40.3025 33.8705 40.3065 33.8685 40.31C33.8665 40.3135 33.8636 40.3164 33.8601 40.3184C33.8566 40.3203 33.8527 40.3214 33.8486 40.3213L1.66309 40.2959C1.65831 40.2959 1.65362 40.2946 1.6495 40.2922C1.64538 40.2897 1.64196 40.2863 1.63959 40.2821C1.63722 40.278 1.63598 40.2733 1.63599 40.2685C1.636 40.2637 1.63726 40.259 1.63965 40.2549C8.94759 27.6963 16.2546 15.14 23.5605 2.58594C23.8659 2.0612 24.3617 1.79656 25.0479 1.792C26.4216 1.78354 27.7874 1.77898 29.1455 1.77833C29.1516 1.77821 29.1576 1.77971 29.163 1.78271C29.1683 1.7857 29.1728 1.79007 29.1759 1.79539C29.1791 1.80071 29.1808 1.80679 29.1809 1.81305C29.1811 1.8193 29.1797 1.82551 29.1768 1.83106L10.084 36.252C10.0818 36.2561 10.0808 36.2607 10.0809 36.2653C10.081 36.2699 10.0823 36.2745 10.0846 36.2785C10.0869 36.2825 10.0903 36.2858 10.0943 36.2882C10.0983 36.2906 10.1028 36.2919 10.1074 36.292Z" fill="#F5F3F4"/>
<path d="M50 40.8232V48.2012L31.0791 14.5742C31.0767 14.5697 31.0731 14.566 31.0687 14.5634C31.0643 14.5608 31.0593 14.5594 31.0542 14.5594C31.0491 14.5594 31.0441 14.5608 31.0397 14.5634C31.0353 14.566 31.0317 14.5697 31.0293 14.5742L20.1172 33.5469C20.1121 33.5555 20.1048 33.5627 20.0961 33.5677C20.0873 33.5726 20.0774 33.5752 20.0674 33.5752L14.6289 33.5654C14.6239 33.5655 14.619 33.5643 14.6147 33.5619C14.6103 33.5595 14.6067 33.556 14.6041 33.5518C14.6015 33.5475 14.6001 33.5427 14.6 33.5377C14.5999 33.5327 14.6011 33.5278 14.6035 33.5234L30.7656 4.76758C30.7852 4.73242 30.8047 4.73275 30.8242 4.76856C37.0749 16.3109 43.3311 27.8633 49.5928 39.4258C49.8193 39.8444 49.9551 40.3102 50 40.8232Z" fill="#F5F3F4"/>
<path d="M0 46.6748V43.126L38.8389 43.1279C38.8439 43.128 38.8489 43.1268 38.8532 43.1242C38.8576 43.1217 38.8612 43.118 38.8637 43.1136C38.8662 43.1091 38.8675 43.104 38.8674 43.0988C38.8673 43.0936 38.8659 43.0885 38.8633 43.084C37.2266 40.3955 35.5488 37.7227 33.9746 35.001C32.069 31.7054 30.165 28.4089 28.2627 25.1113C28.2562 25.1004 28.2527 25.0881 28.2525 25.0755C28.2523 25.063 28.2555 25.0508 28.2617 25.04L30.9883 20.3174C31.0078 20.2835 31.0273 20.2835 31.0469 20.3174L46.6611 48.1641C46.682 48.2005 46.6715 48.2188 46.6299 48.2188C31.7093 48.2259 16.7933 48.2262 1.88184 48.2197C0.804362 48.2197 0.177083 47.7048 0 46.6748Z" fill="#F5F3F4"/>
</svg>
